<svg width="134" height="200" viewBox="0 0 134 200" fill="none" xmlns="http://www.w3.org/2000/svg">
<path d="M133.062 200H3.79404V181.978L72.0867 106.098C82.2042 94.6251 89.1599 85.3207 92.9539 78.1843C96.8383 70.9575 98.7805 63.505 98.7805 55.8266C98.7805 45.5285 95.664 37.0822 89.4309 30.4878C83.1978 23.8934 74.8871 20.5962 64.4986 20.5962C52.0325 20.5962 42.3216 24.1644 35.3659 31.3008C28.5005 38.3469 25.0678 48.1933 25.0678 60.8401H0C0 42.6829 5.82656 28.0036 17.4797 16.8022C29.2231 5.60072 44.8961 0 64.4986 0C82.8365 0 97.3351 4.83288 107.995 14.4986C118.654 24.0741 123.984 36.8564 123.984 52.8455C123.984 72.2674 111.608 95.393 86.8564 122.222L34.0108 179.539H133.062V200Z" fill="white"/>
</svg>
