<svg width="124" height="200" viewBox="0 0 124 200" fill="none" xmlns="http://www.w3.org/2000/svg">
<path d="M40.0722 87.9679H58.6551C70.3307 87.7897 79.5107 84.7148 86.1952 78.7433C92.8797 72.7718 96.2219 64.7059 96.2219 54.5455C96.2219 31.7291 84.8583 20.3209 62.131 20.3209C51.4358 20.3209 42.8797 23.3957 36.4626 29.5455C30.1346 35.6061 26.9706 43.672 26.9706 53.7433H2.23797C2.23797 38.3244 7.85294 25.5348 19.0829 15.3743C30.402 5.12478 44.7513 0 62.131 0C80.4911 0 94.885 4.8574 105.313 14.5722C115.741 24.287 120.955 37.7897 120.955 55.0802C120.955 63.5472 118.192 71.7469 112.666 79.6791C107.229 87.6114 99.787 93.5383 90.3396 97.4599C101.035 100.847 109.279 106.462 115.072 114.305C120.955 122.148 123.896 131.729 123.896 143.048C123.896 160.517 118.192 174.376 106.783 184.626C95.3752 194.875 80.5357 200 62.2647 200C43.9938 200 29.1096 195.053 17.6123 185.16C6.2041 175.267 0.5 162.21 0.5 145.989H25.3663C25.3663 156.239 28.7086 164.439 35.393 170.588C42.0775 176.738 51.0348 179.813 62.2647 179.813C74.2077 179.813 83.3431 176.693 89.6711 170.455C95.9991 164.216 99.1631 155.258 99.1631 143.583C99.1631 132.264 95.6872 123.574 88.7353 117.513C81.7834 111.453 71.7567 108.333 58.6551 108.155H40.0722V87.9679Z" fill="black"/>
</svg>
