<svg id="artwork" xmlns="http://www.w3.org/2000/svg" xmlns:xlink="http://www.w3.org/1999/xlink" viewBox="0 0 135 40"><defs><style>.cls-1{fill:#a6a6a6;}.cls-10,.cls-2,.cls-9{fill:#fff;}.cls-3{fill:url(#linear-gradient);}.cls-4{fill:url(#linear-gradient-2);}.cls-5{fill:url(#linear-gradient-3);}.cls-6{fill:url(#linear-gradient-4);}.cls-7{opacity:0.2;}.cls-7,.cls-8,.cls-9{isolation:isolate;}.cls-8{opacity:0.12;}.cls-9{opacity:0.25;}.cls-10{stroke:#fff;stroke-miterlimit:10;stroke-width:0.2px;}</style><linearGradient id="linear-gradient" x1="56.93" y1="109.48" x2="40.15" y2="92.7" gradientTransform="matrix(1, 0, 0, -1, 0, 202)" gradientUnits="userSpaceOnUse"><stop offset="0" stop-color="#00a0ff"/><stop offset="0.01" stop-color="#00a1ff"/><stop offset="0.26" stop-color="#00beff"/><stop offset="0.51" stop-color="#00d2ff"/><stop offset="0.76" stop-color="#00dfff"/><stop offset="1" stop-color="#00e3ff"/></linearGradient><linearGradient id="linear-gradient-2" x1="68.97" y1="98.19" x2="44.77" y2="98.19" gradientTransform="matrix(1, 0, 0, -1, 0, 202)" gradientUnits="userSpaceOnUse"><stop offset="0" stop-color="#ffe000"/><stop offset="0.41" stop-color="#ffbd00"/><stop offset="0.78" stop-color="orange"/><stop offset="1" stop-color="#ff9c00"/></linearGradient><linearGradient id="linear-gradient-3" x1="59.96" y1="95.89" x2="37.2" y2="73.13" gradientTransform="matrix(1, 0, 0, -1, 0, 202)" gradientUnits="userSpaceOnUse"><stop offset="0" stop-color="#ff3a44"/><stop offset="1" stop-color="#c31162"/></linearGradient><linearGradient id="linear-gradient-4" x1="42.43" y1="118.01" x2="52.59" y2="107.85" gradientTransform="matrix(1, 0, 0, -1, 0, 202)" gradientUnits="userSpaceOnUse"><stop offset="0" stop-color="#32a071"/><stop offset="0.07" stop-color="#2da771"/><stop offset="0.48" stop-color="#15cf74"/><stop offset="0.8" stop-color="#06e775"/><stop offset="1" stop-color="#00f076"/></linearGradient></defs><title>google-play-badge</title><rect width="135" height="40" rx="5"/><path class="cls-1" d="M165.13,84.61a4.21,4.21,0,0,1,4.2,4.2v30a4.2,4.2,0,0,1-4.2,4.2h-125a4.21,4.21,0,0,1-4.2-4.2v-30a4.21,4.21,0,0,1,4.2-4.2h125m0-.8h-125a5,5,0,0,0-5,5v30a5,5,0,0,0,5,5h125a5,5,0,0,0,5-5v-30a5,5,0,0,0-5-5Z" transform="translate(-35.13 -83.81)"/><path class="cls-2" d="M103.27,105.56a4.26,4.26,0,1,0,4.27,4.26A4.2,4.2,0,0,0,103.27,105.56Zm0,6.83a2.58,2.58,0,1,1,2.4-2.57A2.46,2.46,0,0,1,103.27,112.39ZM94,105.56a4.26,4.26,0,1,0,4.27,4.26A4.19,4.19,0,0,0,94,105.56Zm0,6.83a2.58,2.58,0,1,1,2.4-2.57A2.46,2.46,0,0,1,94,112.39Zm-11.07-5.52v1.8h4.31a3.71,3.71,0,0,1-1,2.27,4.41,4.41,0,0,1-3.33,1.32,4.8,4.8,0,0,1,0-9.6A4.61,4.61,0,0,1,86.13,104l1.27-1.27a6.29,6.29,0,0,0-4.52-1.82,6.61,6.61,0,1,0,0,13.21,6.06,6.06,0,0,0,4.6-1.85A6,6,0,0,0,89.05,108a6.24,6.24,0,0,0-.1-1.13Zm45.3,1.4a4,4,0,0,0-3.64-2.71,4,4,0,0,0-4,4.26,4.17,4.17,0,0,0,4.22,4.25,4.23,4.23,0,0,0,3.55-1.89l-1.45-1a2.44,2.44,0,0,1-2.1,1.17,2.16,2.16,0,0,1-2.06-1.29l5.69-2.35Zm-5.8,1.42a2.34,2.34,0,0,1,2.23-2.48,1.65,1.65,0,0,1,1.58.9Zm-4.62,4.12h1.87v-12.5h-1.87Zm-3.06-7.3h-.06a3,3,0,0,0-2.24-1,4.26,4.26,0,0,0,0,8.51,2.9,2.9,0,0,0,2.24-1h.06v.61c0,1.63-.87,2.5-2.27,2.5a2.34,2.34,0,0,1-2.14-1.51l-1.63.67a4.06,4.06,0,0,0,3.77,2.52c2.19,0,4-1.29,4-4.43v-7.64H114.7Zm-2.14,5.88a2.58,2.58,0,0,1,0-5.15,2.6,2.6,0,0,1,0,5.15Zm24.38-11.08h-4.47v12.5h1.86v-4.73h2.61a3.89,3.89,0,1,0,0-7.77Zm.05,6h-2.66v-4.29H137a2.15,2.15,0,1,1,0,4.29Zm11.53-1.8a3.52,3.52,0,0,0-3.33,1.91l1.66.7a1.75,1.75,0,0,1,1.7-.92,1.79,1.79,0,0,1,2,1.61V109a4,4,0,0,0-1.94-.49c-1.79,0-3.61,1-3.61,2.82a2.9,2.9,0,0,0,3.11,2.75,2.64,2.64,0,0,0,2.38-1.22h.06v1h1.8V109C152.31,106.78,150.66,105.54,148.52,105.54Zm-.23,6.85c-.61,0-1.46-.3-1.46-1.06,0-1,1.06-1.34,2-1.34a3.32,3.32,0,0,1,1.7.42A2.26,2.26,0,0,1,148.29,112.39Zm10.59-6.58-2.14,5.42h-.07l-2.22-5.42h-2l3.33,7.58-1.9,4.21h1.95L161,105.81Zm-16.81,8h1.86v-12.5h-1.86Z" transform="translate(-35.13 -83.81)"/><path class="cls-3" d="M45.57,91.35a2,2,0,0,0-.47,1.4v22.12a2,2,0,0,0,.47,1.41l.07.07L58,104v-.29L45.64,91.28Z" transform="translate(-35.13 -83.81)"/><path class="cls-4" d="M62.16,108.09,58,104v-.29l4.13-4.13.09,0,4.9,2.78c1.39.79,1.39,2.09,0,2.89L62.25,108Z" transform="translate(-35.13 -83.81)"/><path class="cls-5" d="M62.25,108,58,103.81,45.57,116.28a1.65,1.65,0,0,0,2.08.06l14.6-8.3" transform="translate(-35.13 -83.81)"/><path class="cls-6" d="M62.25,99.59l-14.6-8.3a1.62,1.62,0,0,0-2.08.06L58,103.81Z" transform="translate(-35.13 -83.81)"/><path class="cls-7" d="M62.16,107.94l-14.51,8.25a1.68,1.68,0,0,1-2,0h0l-.07.08h0l.07.07h0a1.68,1.68,0,0,0,2,0l14.6-8.3Z" transform="translate(-35.13 -83.81)"/><path class="cls-8" d="M45.57,116.13a2,2,0,0,1-.47-1.41v.15a2,2,0,0,0,.47,1.41l.07-.08Z" transform="translate(-35.13 -83.81)"/><path class="cls-8" d="M67.15,105.11l-5,2.83.09.1,4.9-2.78a1.76,1.76,0,0,0,1-1.45h0A1.87,1.87,0,0,1,67.15,105.11Z" transform="translate(-35.13 -83.81)"/><path class="cls-9" d="M47.65,91.43l19.5,11.08a1.89,1.89,0,0,1,1,1.3h0a1.76,1.76,0,0,0-1-1.44L47.65,91.29c-1.4-.8-2.55-.14-2.55,1.46v.15C45.1,91.3,46.25,90.64,47.65,91.43Z" transform="translate(-35.13 -83.81)"/><path class="cls-10" d="M77.25,98.08h-.74v-2h.59a2.87,2.87,0,0,0,.76-2.29v-3h4v5.26h.67v2H81.8V96.81H77.25Zm1.38-4.3a4,4,0,0,1-.57,2.29h3V91.55H78.63Z" transform="translate(-35.13 -83.81)"/><path class="cls-10" d="M88.55,96a3.11,3.11,0,0,1-4.4,0,3.09,3.09,0,0,1-.89-2.23,3,3,0,0,1,.89-2.22,3.1,3.1,0,0,1,4.39,0,3.24,3.24,0,0,1,0,4.45Zm-3.83-.51a2.19,2.19,0,0,0,1.63.68A2.22,2.22,0,0,0,88,95.53a2.57,2.57,0,0,0,0-3.44,2.22,2.22,0,0,0-1.63-.68,2.19,2.19,0,0,0-1.63.68,2.54,2.54,0,0,0,0,3.44Z" transform="translate(-35.13 -83.81)"/><path class="cls-10" d="M93.31,97a3.17,3.17,0,0,1-2.22-5.38,3,3,0,0,1,2.22-.89,2.77,2.77,0,0,1,2.21,1l-.54.52a2,2,0,0,0-1.67-.77,2.28,2.28,0,0,0-1.65.67,2.55,2.55,0,0,0,0,3.47,2.27,2.27,0,0,0,1.65.66,2.35,2.35,0,0,0,1.84-.87l.54.53a3,3,0,0,1-1,.79A3.17,3.17,0,0,1,93.31,97Z" transform="translate(-35.13 -83.81)"/><path class="cls-10" d="M98.81,96.81H98V91.55H96.36v-.74h4.13v.74H98.81Z" transform="translate(-35.13 -83.81)"/><path class="cls-10" d="M105.78,90.81l-2.27,5.06a1.52,1.52,0,0,1-1.4,1.08,1.57,1.57,0,0,1-.6-.14l.2-.71a.87.87,0,0,0,.41.11.69.69,0,0,0,.41-.11.84.84,0,0,0,.27-.38l.22-.48-2-4.43h.91l1.48,3.45h0l1.45-3.45Z" transform="translate(-35.13 -83.81)"/><path class="cls-10" d="M106.65,96.81v-6H111v6h-.77V91.55h-2.8v5.26Z" transform="translate(-35.13 -83.81)"/><path class="cls-10" d="M112.37,96.81v-6h.77v2.57h3V90.81h.77v6h-.77V94.1h-3v2.71Z" transform="translate(-35.13 -83.81)"/><path class="cls-10" d="M123.19,96a3.11,3.11,0,0,1-4.4,0,3.08,3.08,0,0,1-.88-2.23,3,3,0,0,1,.88-2.22,2.93,2.93,0,0,1,2.2-.91,3,3,0,0,1,2.2.91,3.25,3.25,0,0,1,0,4.45Zm-3.83-.51a2.29,2.29,0,0,0,3.26,0,2.54,2.54,0,0,0,0-3.44,2.29,2.29,0,0,0-3.26,0,2.54,2.54,0,0,0,0,3.44Z" transform="translate(-35.13 -83.81)"/><path class="cls-10" d="M127.23,96.81v-6h2.17a1.78,1.78,0,0,1,1.22.47,1.52,1.52,0,0,1,.51,1.17,1.3,1.3,0,0,1-.22.75,1.41,1.41,0,0,1-.59.49v0a1.52,1.52,0,0,1,.73.52,1.34,1.34,0,0,1,.28.85,1.6,1.6,0,0,1-.54,1.23,1.85,1.85,0,0,1-1.28.48Zm.77-3.43h1.4a.89.89,0,0,0,.7-.29.89.89,0,0,0,0-1.26.85.85,0,0,0-.67-.28H128Zm0,2.69h1.55a.92.92,0,0,0,.72-.31,1,1,0,0,0,.27-.68,1,1,0,0,0-.28-.67,1,1,0,0,0-.75-.31H128Z" transform="translate(-35.13 -83.81)"/></svg>